<svg aria-hidden="true" style="position: absolute; width: 0; height: 0; overflow: hidden;" version="1.1" xmlns="http://www.w3.org/2000/svg" xmlns:xlink="http://www.w3.org/1999/xlink">
<defs>
<symbol id="icon-Ellipse" viewBox="0 0 18 32">
<path fill="#4d5ae5" style="fill: var(--color1, #4d5ae5)" d="M13.714 9.143c0 1.262-0.512 2.405-1.339 3.232s-1.97 1.339-3.232 1.339c-1.262 0-2.405-0.512-3.232-1.339s-1.339-1.97-1.339-3.232c0-1.262 0.512-2.405 1.339-3.232s1.97-1.339 3.232-1.339c1.262 0 2.405 0.512 3.232 1.339s1.339 1.97 1.339 3.232z"></path>
<path fill="#f4f4fd" style="fill: var(--color2, #f4f4fd)" d="M11.88 8.013c-0.013-0.291-0.060-0.492-0.127-0.665-0.070-0.184-0.177-0.349-0.317-0.487-0.137-0.139-0.303-0.248-0.485-0.316-0.175-0.068-0.374-0.115-0.665-0.128-0.294-0.014-0.387-0.017-1.132-0.017s-0.838 0.003-1.131 0.016c-0.291 0.013-0.492 0.060-0.665 0.128-0.184 0.070-0.349 0.177-0.487 0.317-0.139 0.137-0.248 0.303-0.316 0.485-0.068 0.175-0.115 0.374-0.128 0.665-0.014 0.294-0.017 0.387-0.017 1.132s0.003 0.838 0.016 1.131c0.013 0.291 0.060 0.492 0.128 0.665 0.070 0.184 0.178 0.349 0.317 0.486 0.137 0.139 0.303 0.248 0.485 0.316 0.175 0.068 0.374 0.115 0.666 0.128s0.386 0.016 1.131 0.016 0.838-0.003 1.131-0.016c0.291-0.013 0.492-0.060 0.665-0.128 0.369-0.143 0.66-0.434 0.803-0.803 0.068-0.175 0.115-0.374 0.128-0.665 0.013-0.293 0.016-0.386 0.016-1.131s-0.001-0.838-0.014-1.131zM11.386 10.253c-0.012 0.268-0.057 0.413-0.094 0.509-0.092 0.239-0.282 0.429-0.521 0.521-0.096 0.037-0.242 0.082-0.509 0.094-0.289 0.013-0.376 0.016-1.108 0.016s-0.82-0.003-1.108-0.016c-0.268-0.012-0.413-0.057-0.509-0.094-0.119-0.044-0.227-0.114-0.315-0.205-0.091-0.089-0.161-0.196-0.205-0.315-0.037-0.096-0.082-0.242-0.094-0.509-0.013-0.289-0.016-0.376-0.016-1.108s0.003-0.82 0.016-1.108c0.012-0.268 0.057-0.413 0.094-0.509 0.044-0.119 0.114-0.227 0.206-0.315 0.089-0.091 0.196-0.161 0.315-0.205 0.096-0.037 0.242-0.082 0.509-0.094 0.289-0.013 0.376-0.016 1.108-0.016 0.733 0 0.82 0.003 1.108 0.016 0.268 0.012 0.413 0.057 0.509 0.094 0.119 0.044 0.227 0.114 0.315 0.205 0.091 0.089 0.161 0.196 0.205 0.315 0.037 0.096 0.082 0.242 0.094 0.509 0.013 0.289 0.016 0.376 0.016 1.108s-0.003 0.818-0.016 1.107z"></path>
<path fill="#f4f4fd" style="fill: var(--color2, #f4f4fd)" d="M9.153 7.734c-0.778 0-1.409 0.631-1.409 1.409s0.631 1.409 1.409 1.409c0.778 0 1.409-0.631 1.409-1.409s-0.631-1.409-1.409-1.409zM9.153 10.057c-0.505 0-0.914-0.409-0.914-0.914s0.409-0.914 0.914-0.914c0.505 0 0.914 0.409 0.914 0.914s-0.409 0.914-0.914 0.914z"></path>
<path fill="#f4f4fd" style="fill: var(--color2, #f4f4fd)" d="M10.947 7.678c0 0.182-0.147 0.329-0.329 0.329s-0.329-0.147-0.329-0.329c0-0.182 0.147-0.329 0.329-0.329s0.329 0.147 0.329 0.329z"></path>
<path fill="#31d0aa" style="fill: var(--color3, #31d0aa)" d="M13.714 22.857c0 1.262-0.512 2.405-1.339 3.232s-1.97 1.339-3.232 1.339c-1.262 0-2.405-0.512-3.232-1.339s-1.339-1.97-1.339-3.232c0-1.262 0.512-2.405 1.339-3.232s1.97-1.339 3.232-1.339c1.262 0 2.405 0.512 3.232 1.339s1.339 1.97 1.339 3.232z"></path>
<path fill="#f4f4fd" style="fill: var(--color2, #f4f4fd)" d="M11.88 21.727c-0.013-0.291-0.060-0.492-0.127-0.666-0.070-0.184-0.177-0.349-0.317-0.486-0.137-0.139-0.303-0.248-0.485-0.316-0.175-0.068-0.374-0.115-0.665-0.128-0.294-0.014-0.387-0.017-1.132-0.017s-0.838 0.003-1.131 0.016c-0.291 0.013-0.492 0.060-0.665 0.128-0.184 0.070-0.349 0.177-0.487 0.317-0.139 0.137-0.248 0.303-0.316 0.485-0.068 0.175-0.115 0.374-0.128 0.665-0.014 0.294-0.017 0.387-0.017 1.132s0.003 0.838 0.016 1.131c0.013 0.291 0.060 0.492 0.128 0.665 0.070 0.184 0.178 0.349 0.317 0.487 0.137 0.139 0.303 0.248 0.485 0.316 0.175 0.067 0.374 0.114 0.666 0.128s0.386 0.016 1.131 0.016 0.838-0.003 1.131-0.016c0.291-0.013 0.492-0.060 0.665-0.128 0.369-0.143 0.66-0.434 0.803-0.803 0.068-0.175 0.115-0.374 0.128-0.665 0.013-0.293 0.016-0.386 0.016-1.131s-0.001-0.838-0.014-1.131zM11.386 23.967c-0.012 0.268-0.057 0.413-0.094 0.509-0.092 0.239-0.282 0.429-0.521 0.521-0.096 0.038-0.242 0.082-0.509 0.094-0.289 0.013-0.376 0.016-1.108 0.016s-0.82-0.003-1.108-0.016c-0.268-0.012-0.413-0.057-0.509-0.094-0.119-0.044-0.227-0.114-0.315-0.205-0.091-0.089-0.161-0.196-0.205-0.315-0.037-0.096-0.082-0.242-0.094-0.509-0.013-0.289-0.016-0.376-0.016-1.108s0.003-0.82 0.016-1.108c0.012-0.268 0.057-0.413 0.094-0.509 0.044-0.119 0.114-0.227 0.206-0.315 0.089-0.091 0.196-0.161 0.315-0.205 0.096-0.038 0.242-0.082 0.509-0.094 0.289-0.013 0.376-0.016 1.108-0.016 0.733 0 0.82 0.003 1.108 0.016 0.268 0.012 0.413 0.057 0.509 0.094 0.119 0.044 0.227 0.114 0.315 0.205 0.091 0.089 0.161 0.196 0.205 0.315 0.037 0.096 0.082 0.242 0.094 0.509 0.013 0.289 0.016 0.376 0.016 1.108s-0.003 0.818-0.016 1.107z"></path>
<path fill="#f4f4fd" style="fill: var(--color2, #f4f4fd)" d="M9.153 21.448c-0.778 0-1.409 0.631-1.409 1.409s0.631 1.409 1.409 1.409c0.778 0 1.409-0.631 1.409-1.409s-0.631-1.409-1.409-1.409zM9.153 23.772c-0.505 0-0.914-0.409-0.914-0.914s0.409-0.914 0.914-0.914c0.505 0 0.914 0.409 0.914 0.914s-0.409 0.914-0.914 0.914z"></path>
<path fill="#f4f4fd" style="fill: var(--color2, #f4f4fd)" d="M10.947 21.393c0 0.182-0.147 0.329-0.329 0.329s-0.329-0.147-0.329-0.329c0-0.182 0.147-0.329 0.329-0.329s0.329 0.147 0.329 0.329z"></path>
</symbol>
<symbol id="icon-Ellipse-1" viewBox="0 0 18 32">
<path fill="#4d5ae5" style="fill: var(--color1, #4d5ae5)" d="M13.714 9.143c0 1.262-0.512 2.405-1.339 3.232s-1.97 1.339-3.232 1.339c-1.262 0-2.405-0.512-3.232-1.339s-1.339-1.97-1.339-3.232c0-1.262 0.512-2.405 1.339-3.232s1.97-1.339 3.232-1.339c1.262 0 2.405 0.512 3.232 1.339s1.339 1.97 1.339 3.232z"></path>
<path fill="#f4f4fd" style="fill: var(--color2, #f4f4fd)" d="M11.886 7.442c-0.204 0.090-0.421 0.149-0.648 0.178 0.233-0.139 0.411-0.358 0.495-0.622-0.217 0.13-0.457 0.221-0.713 0.272-0.206-0.22-0.501-0.356-0.822-0.356-0.623 0-1.124 0.505-1.124 1.125 0 0.089 0.008 0.175 0.026 0.256-0.935-0.046-1.762-0.494-2.318-1.176-0.097 0.168-0.154 0.361-0.154 0.568 0 0.389 0.201 0.735 0.5 0.935-0.181-0.003-0.358-0.056-0.508-0.139 0 0.003 0 0.008 0 0.012 0 0.546 0.39 1 0.901 1.105-0.092 0.025-0.191 0.037-0.295 0.037-0.072 0-0.145-0.004-0.213-0.019 0.146 0.445 0.559 0.773 1.051 0.783-0.383 0.299-0.868 0.48-1.394 0.48-0.092 0-0.181-0.004-0.269-0.015 0.498 0.321 1.089 0.505 1.725 0.505 2.069 0 3.201-1.714 3.201-3.2 0-0.050-0.002-0.098-0.004-0.145 0.223-0.158 0.411-0.356 0.564-0.584z"></path>
<path fill="#31d0aa" style="fill: var(--color3, #31d0aa)" d="M13.714 22.857c0 1.262-0.512 2.405-1.339 3.232s-1.97 1.339-3.232 1.339c-1.262 0-2.405-0.512-3.232-1.339s-1.339-1.97-1.339-3.232c0-1.262 0.512-2.405 1.339-3.232s1.97-1.339 3.232-1.339c1.262 0 2.405 0.512 3.232 1.339s1.339 1.97 1.339 3.232z"></path>
<path fill="#f4f4fd" style="fill: var(--color2, #f4f4fd)" d="M11.886 21.156c-0.204 0.090-0.421 0.149-0.648 0.178 0.233-0.139 0.411-0.358 0.495-0.622-0.217 0.13-0.457 0.221-0.713 0.272-0.206-0.22-0.501-0.356-0.822-0.356-0.623 0-1.124 0.505-1.124 1.125 0 0.089 0.008 0.175 0.026 0.256-0.935-0.046-1.762-0.494-2.318-1.176-0.097 0.168-0.154 0.361-0.154 0.568 0 0.39 0.201 0.735 0.5 0.935-0.181-0.003-0.358-0.056-0.508-0.139 0 0.003 0 0.008 0 0.012 0 0.546 0.39 1 0.901 1.105-0.092 0.025-0.191 0.037-0.295 0.037-0.072 0-0.145-0.004-0.213-0.019 0.146 0.445 0.559 0.773 1.051 0.783-0.383 0.299-0.868 0.48-1.394 0.48-0.092 0-0.181-0.004-0.269-0.016 0.498 0.321 1.089 0.505 1.725 0.505 2.069 0 3.201-1.714 3.201-3.2 0-0.050-0.002-0.098-0.004-0.145 0.223-0.158 0.411-0.356 0.564-0.584z"></path>
</symbol>
<symbol id="icon-Ellipse-2" viewBox="0 0 18 32">
<path fill="#4d5ae5" style="fill: var(--color1, #4d5ae5)" d="M13.714 9.143c0 1.262-0.512 2.405-1.339 3.232s-1.97 1.339-3.232 1.339c-1.262 0-2.405-0.512-3.232-1.339s-1.339-1.97-1.339-3.232c0-1.262 0.512-2.405 1.339-3.232s1.97-1.339 3.232-1.339c1.262 0 2.405 0.512 3.232 1.339s1.339 1.97 1.339 3.232z"></path>
<path fill="#f4f4fd" style="fill: var(--color2, #f4f4fd)" d="M10.056 7.311h0.501v-0.872c-0.086-0.012-0.384-0.039-0.73-0.039-0.722 0-1.217 0.454-1.217 1.289v0.768h-0.797v0.975h0.797v2.454h0.977v-2.453h0.765l0.121-0.975h-0.886v-0.672c0-0.282 0.076-0.475 0.469-0.475z"></path>
<path fill="#31d0aa" style="fill: var(--color3, #31d0aa)" d="M13.714 22.857c0 1.262-0.512 2.405-1.339 3.232s-1.97 1.339-3.232 1.339c-1.262 0-2.405-0.512-3.232-1.339s-1.339-1.97-1.339-3.232c0-1.262 0.512-2.405 1.339-3.232s1.97-1.339 3.232-1.339c1.262 0 2.405 0.512 3.232 1.339s1.339 1.97 1.339 3.232z"></path>
<path fill="#f4f4fd" style="fill: var(--color2, #f4f4fd)" d="M10.056 21.025h0.501v-0.872c-0.086-0.012-0.384-0.039-0.73-0.039-0.722 0-1.217 0.454-1.217 1.289v0.768h-0.797v0.975h0.797v2.454h0.977v-2.453h0.765l0.121-0.975h-0.886v-0.672c0-0.282 0.076-0.475 0.469-0.475z"></path>
</symbol>
<symbol id="icon-Ellipse-3" viewBox="0 0 18 32">
<path fill="#4d5ae5" style="fill: var(--color1, #4d5ae5)" d="M13.714 9.143c0 1.262-0.512 2.405-1.339 3.232s-1.97 1.339-3.232 1.339c-1.262 0-2.405-0.512-3.232-1.339s-1.339-1.97-1.339-3.232c0-1.262 0.512-2.405 1.339-3.232s1.97-1.339 3.232-1.339c1.262 0 2.405 0.512 3.232 1.339s1.339 1.97 1.339 3.232z"></path>
<path fill="#f4f4fd" style="fill: var(--color2, #f4f4fd)" d="M11.884 11.886v-0h0.001v-2.012c0-0.984-0.212-1.742-1.363-1.742-0.553 0-0.924 0.304-1.076 0.591h-0.016v-0.499h-1.091v3.662h1.136v-1.813c0-0.477 0.091-0.939 0.682-0.939 0.583 0 0.591 0.545 0.591 0.97v1.783h1.135z"></path>
<path fill="#f4f4fd" style="fill: var(--color2, #f4f4fd)" d="M6.49 8.223h1.137v3.662h-1.137v-3.662z"></path>
<path fill="#f4f4fd" style="fill: var(--color2, #f4f4fd)" d="M7.059 6.4c-0.364 0-0.659 0.295-0.659 0.659s0.295 0.665 0.659 0.665c0.364 0 0.659-0.301 0.659-0.665s-0.295-0.659-0.659-0.659v0z"></path>
<path fill="#31d0aa" style="fill: var(--color3, #31d0aa)" d="M13.714 22.857c0 1.262-0.512 2.405-1.339 3.232s-1.97 1.339-3.232 1.339c-1.262 0-2.405-0.512-3.232-1.339s-1.339-1.97-1.339-3.232c0-1.262 0.512-2.405 1.339-3.232s1.97-1.339 3.232-1.339c1.262 0 2.405 0.512 3.232 1.339s1.339 1.97 1.339 3.232z"></path>
<path fill="#f4f4fd" style="fill: var(--color2, #f4f4fd)" d="M11.884 25.6v-0h0.001v-2.012c0-0.984-0.212-1.742-1.363-1.742-0.553 0-0.924 0.304-1.076 0.591h-0.016v-0.499h-1.091v3.662h1.136v-1.814c0-0.477 0.091-0.939 0.682-0.939 0.583 0 0.591 0.545 0.591 0.97v1.783h1.135z"></path>
<path fill="#f4f4fd" style="fill: var(--color2, #f4f4fd)" d="M6.49 21.938h1.137v3.662h-1.137v-3.662z"></path>
<path fill="#f4f4fd" style="fill: var(--color2, #f4f4fd)" d="M7.059 20.114c-0.364 0-0.659 0.295-0.659 0.659s0.295 0.665 0.659 0.665c0.364 0 0.659-0.301 0.659-0.665s-0.295-0.659-0.659-0.659v0z"></path>
</symbol>
<symbol id="icon-box-add" viewBox="0 0 32 32">
<path d="M26 2h-20l-6 6v21c0 0.552 0.448 1 1 1h30c0.552 0 1-0.448 1-1v-21l-6-6zM16 26l-10-8h6v-6h8v6h6l-10 8zM4.828 6l2-2h18.343l2 2h-22.343z"></path>
</symbol>
</defs>
</svg>
